<svg width="220" height="50" viewBox="0 0 220 50" fill="none" xmlns="http://www.w3.org/2000/svg"><g transform="translate(-37, 3)"><path d="M81.2903 0H37.0803V44.21H81.2903V0Z" fill="#FDA311"/><path d="M68.1103 27.97L67.6703 27.1L59.1803 10.17L55.9603 16.6L55.8802 16.77L54.3402 19.84L54.0403 20.44L47.2103 34.06H48.4903L50.1703 30.71L51.3402 28.38H58.6302H61.7003L63.9102 32.79L64.5503 34.06H71.1602L68.1103 27.97ZM66.3903 27.09H62.3402L57.1602 16.75L59.1902 12.71L66.4003 27.09H66.3903ZM51.9803 27.09L54.3503 22.37L56.7202 27.09H51.9903H51.9803ZM57.9903 27.09L54.9903 21.1L56.5302 18.03L61.0703 27.09H58.0002H57.9903ZM65.1902 32.78L62.9803 28.37H67.0302L69.2403 32.78H65.1902Z" fill="#14213D"/></g><g transform="translate(58, -55)"><path d="M18.7253 90.8759C18.1505 90.8759 17.6385 90.7714 17.1578 90.5519C16.6876 90.3325 16.2696 90.0504 15.9144 89.6742L16.4891 89.0159C16.7712 89.3189 17.116 89.5488 17.5027 89.7264C17.8893 89.9041 18.3073 89.9877 18.7253 89.9877C19.2582 89.9877 19.6657 89.8727 19.9583 89.6324C20.2509 89.3921 20.3972 89.0786 20.3972 88.6815C20.3972 88.4098 20.3344 88.1904 20.2195 88.0232C20.1046 87.856 19.9374 87.7202 19.7388 87.6052C19.5403 87.4903 19.3104 87.3753 19.0596 87.2604L17.9102 86.7588C17.649 86.6439 17.3982 86.4976 17.1474 86.3304C16.8966 86.1632 16.6981 85.9438 16.5309 85.6721C16.3637 85.4108 16.2905 85.0765 16.2905 84.6898C16.2905 84.3032 16.395 83.9166 16.6145 83.5927C16.8339 83.2687 17.1265 83.0179 17.5027 82.8403C17.8788 82.6522 18.3177 82.5686 18.7984 82.5686C19.279 82.5686 19.7388 82.6627 20.1463 82.8403C20.5539 83.0179 20.8987 83.2478 21.1704 83.5404L20.6166 84.1987C20.3658 83.9793 20.0837 83.8016 19.7911 83.6658C19.4985 83.53 19.1641 83.4673 18.7984 83.4673C18.349 83.4673 17.9938 83.5717 17.7221 83.7807C17.4504 83.9897 17.3146 84.2719 17.3146 84.6376C17.3146 84.8884 17.3773 85.0974 17.5131 85.2646C17.649 85.4317 17.8161 85.5571 18.0147 85.6721C18.2237 85.7766 18.4327 85.8811 18.6416 85.9751L19.7806 86.4662C20.0941 86.6021 20.3762 86.7588 20.627 86.9469C20.8778 87.135 21.0659 87.3544 21.2122 87.6157C21.3585 87.8874 21.4212 88.2113 21.4212 88.6083C21.4212 89.0368 21.3167 89.4129 21.0972 89.7578C20.8778 90.1026 20.5643 90.3743 20.1568 90.5833C19.7493 90.7818 19.2582 90.8863 18.6939 90.8863L18.7253 90.8759Z" fill="#FDA311"/><path d="M25.8831 90.7296V83.5927H23.4692V82.7253H29.3314V83.5927H26.9175V90.7296H25.8935H25.8831Z" fill="#FDA311"/><path d="M34.2322 90.8759C33.8142 90.8759 33.438 90.8132 33.0932 90.6982C32.7484 90.5833 32.4453 90.3847 32.1841 90.1235C31.9229 89.8623 31.7243 89.507 31.578 89.0681C31.4317 88.6292 31.3586 88.0963 31.3586 87.4694V82.7253H32.3722V87.5007C32.3722 88.1277 32.4558 88.6188 32.6229 88.9845C32.7901 89.3503 33.0096 89.601 33.2917 89.7578C33.5739 89.9041 33.8873 89.9877 34.2426 89.9877C34.5979 89.9877 34.9114 89.9145 35.2039 89.7578C35.4965 89.6115 35.7264 89.3503 35.8936 88.9845C36.0608 88.6188 36.1548 88.1277 36.1548 87.5007V82.7253H37.1162V87.4694C37.1162 88.0963 37.043 88.6292 36.9072 89.0681C36.7609 89.507 36.5623 89.8623 36.3011 90.1235C36.0399 90.3847 35.7369 90.5833 35.3816 90.6982C35.0263 90.8132 34.6501 90.8759 34.2426 90.8759H34.2322Z" fill="#FDA311"/><path d="M39.1224 90.7296V82.7253H41.1287C41.9542 82.7253 42.6438 82.8821 43.2081 83.1851C43.7723 83.4986 44.1903 83.9479 44.4829 84.5331C44.7755 85.1287 44.9113 85.8393 44.9113 86.6857C44.9113 87.5321 44.765 88.2635 44.4829 88.8696C44.1903 89.4756 43.7724 89.9354 43.2185 90.2594C42.6647 90.5728 41.9855 90.74 41.1809 90.74H39.1328L39.1224 90.7296ZM40.136 89.8936H41.0555C41.6825 89.8936 42.2049 89.7682 42.6229 89.507C43.0409 89.2458 43.3439 88.8905 43.5529 88.4098C43.7514 87.9396 43.8559 87.3649 43.8559 86.6752C43.8559 85.9855 43.7514 85.4422 43.5529 84.9615C43.3544 84.4809 43.0409 84.136 42.6229 83.8957C42.2049 83.6554 41.6825 83.5404 41.0555 83.5404H40.136V89.8936Z" fill="#FDA311"/><path d="M46.9281 90.7296V82.7253H47.9417V90.7296H46.9281Z" fill="#FDA311"/><path d="M53.3857 90.8759C52.7169 90.8759 52.1318 90.7087 51.6093 90.3638C51.0973 90.019 50.6898 89.5383 50.3972 88.9114C50.1046 88.2844 49.9583 87.5425 49.9583 86.6857C49.9583 85.8288 50.1046 85.0974 50.3972 84.4809C50.6898 83.8643 51.0869 83.3941 51.6093 83.0597C52.1318 82.7253 52.7169 82.5686 53.3857 82.5686C54.0545 82.5686 54.6501 82.7358 55.1726 83.0597C55.695 83.3837 56.0921 83.8643 56.3847 84.4809C56.6773 85.0974 56.8236 85.8288 56.8236 86.6857C56.8236 87.5425 56.6773 88.2844 56.3847 88.9114C56.0921 89.5383 55.6846 90.019 55.1726 90.3638C54.6606 90.7087 54.0649 90.8759 53.3857 90.8759ZM53.3857 89.9668C53.8664 89.9668 54.2844 89.8309 54.6396 89.5592C54.9949 89.2876 55.2666 88.9114 55.4652 88.4203C55.6637 87.9291 55.7577 87.344 55.7577 86.6857C55.7577 86.0273 55.6637 85.4526 55.4652 84.972C55.2666 84.4913 54.9949 84.1151 54.6396 83.8539C54.2844 83.5927 53.8664 83.4568 53.3857 83.4568C52.905 83.4568 52.4975 83.5927 52.1422 83.8539C51.7869 84.1151 51.5048 84.4913 51.3168 84.972C51.1182 85.4526 51.0242 86.0169 51.0242 86.6857C51.0242 87.3544 51.1182 87.9291 51.3168 88.4203C51.5153 88.9114 51.7869 89.298 52.1422 89.5592C52.4975 89.8309 52.9155 89.9668 53.3857 89.9668Z" fill="#FDA311"/><path d="M62.7902 90.7296V82.7253H63.8038V89.8623H67.3044V90.7296H62.7902Z" fill="#FDA311"/><path d="M69.0181 90.7296V82.7253H73.6367V83.5822H70.0317V86.1005H73.0724V86.9678H70.0317V89.8727H73.7516V90.74H69.0181V90.7296Z" fill="#FDA311"/><path d="M79.0703 90.8759C78.3598 90.8759 77.7328 90.7087 77.1999 90.3847C76.667 90.0608 76.2385 89.5801 75.925 88.9636C75.6116 88.3471 75.4653 87.6052 75.4653 86.7275C75.4653 86.0796 75.5593 85.5049 75.737 84.9929C75.9251 84.4808 76.1758 84.042 76.5102 83.6762C76.8446 83.3105 77.2312 83.0388 77.6805 82.8508C78.1299 82.6627 78.621 82.5686 79.1434 82.5686C79.6659 82.5686 80.1571 82.6731 80.5437 82.8716C80.9303 83.0702 81.2229 83.3001 81.4528 83.5508L80.8885 84.1883C80.69 83.9793 80.4601 83.8016 80.1884 83.6658C79.9167 83.53 79.5719 83.4568 79.1748 83.4568C78.6419 83.4568 78.1716 83.5927 77.7746 83.8539C77.3775 84.1151 77.064 84.4913 76.8551 84.972C76.6356 85.4526 76.5311 86.0274 76.5311 86.6961C76.5311 87.3649 76.6356 87.95 76.8446 88.4411C77.0536 88.9323 77.3566 89.3084 77.7537 89.5801C78.1508 89.8518 78.6314 89.9877 79.1957 89.9877C79.4778 89.9877 79.7495 89.9459 80.0108 89.8623C80.272 89.7787 80.481 89.6637 80.6377 89.5174V87.4276H78.9449V86.5812H81.5677V89.9459C81.3169 90.2175 80.9721 90.437 80.5437 90.6146C80.1153 90.7923 79.6346 90.8759 79.1017 90.8759H79.0703Z" fill="#FDA311"/><path d="M83.2396 90.7296L85.946 82.7253H87.0955L89.8018 90.7296H88.7256L87.3254 86.2468C87.1791 85.7975 87.0432 85.3586 86.9074 84.9093C86.782 84.4704 86.6462 84.0106 86.5208 83.5509H86.4685C86.3431 84.0106 86.2177 84.4704 86.0923 84.9093C85.9669 85.3481 85.8206 85.7975 85.6743 86.2468L84.2532 90.7296H83.2292H83.2396ZM84.6503 88.2844V87.4798H88.3494V88.2844H84.6503Z" fill="#FDA311"/><path d="M91.5051 90.7296V82.7253H92.5187V89.8623H96.0192V90.7296H91.5051Z" fill="#FDA311"/><path d="M97.7225 90.7296V82.7253H102.341V83.5822H98.7361V86.1005H101.777V86.9678H98.7361V89.8727H102.456V90.74H97.7225V90.7296Z" fill="#FDA311"/><path d="M0 74.5957V73.906C0.553817 73.8538 0.961355 73.7284 1.25394 73.5403C1.53607 73.3522 1.77641 73.0074 1.97495 72.5162L6.48905 61.21H7.75345L11.8496 71.231C12.0899 71.8161 12.2989 72.2759 12.4661 72.6103C12.6333 72.9447 12.8109 73.2059 12.999 73.3731C13.1767 73.5403 13.3961 73.6657 13.6469 73.7284C13.8872 73.8015 14.2111 73.8538 14.5978 73.8851V74.5852H8.11918V73.8851C8.673 73.8642 9.0596 73.8015 9.29993 73.7179C9.54027 73.6239 9.65521 73.4462 9.65521 73.1641C9.65521 73.0074 9.61342 72.7984 9.52982 72.5372C9.44623 72.2759 9.34173 71.9729 9.20589 71.6176L8.80881 70.5936H3.96032C3.68864 71.2101 3.47963 71.7221 3.35424 72.1401C3.2184 72.5476 3.15573 72.882 3.15573 73.1223C3.15573 73.4671 3.28112 73.6866 3.54235 73.7702C3.80359 73.8642 4.1902 73.906 4.70222 73.906V74.5957H0ZM4.3574 69.5695H8.44311L6.46816 64.3762H6.39501L4.3574 69.5695Z" fill="#FDA311"/><path d="M27.0325 62.4535L27.3564 61.3877H28.1924L27.8475 65.7242H27.1579C26.9175 64.6688 26.4473 63.8433 25.7577 63.2372C25.068 62.6312 24.2321 62.3281 23.2498 62.3281C22.3616 62.3281 21.5988 62.558 20.9614 63.0282C20.324 63.488 19.8433 64.1568 19.509 65.0136C19.1746 65.8705 19.0074 66.905 19.0074 68.1066C19.0074 69.8726 19.3731 71.231 20.1045 72.1924C20.836 73.1537 21.9018 73.6344 23.3125 73.6344C24.441 73.6344 25.392 73.3209 26.1443 72.7044C26.8967 72.0878 27.44 71.1683 27.7535 69.9562H28.5058V74.6062H27.7013L27.4609 73.2477C26.207 74.2613 24.6814 74.7733 22.8841 74.7733C21.5048 74.7733 20.2926 74.5017 19.2686 73.9687C18.2446 73.4358 17.44 72.673 16.8757 71.7012C16.3114 70.719 16.0293 69.5696 16.0293 68.232C16.0293 67.1871 16.1965 66.2467 16.5413 65.3898C16.8862 64.533 17.3668 63.8015 17.9938 63.1745C18.6207 62.5476 19.3627 62.0669 20.23 61.7325C21.0973 61.3981 22.0586 61.231 23.0931 61.231C23.7932 61.231 24.4411 61.325 25.0576 61.5235C25.6741 61.7221 26.3219 62.0356 27.0221 62.464L27.0325 62.4535Z" fill="#FDA311"/><path d="M41.8392 62.4535L42.1632 61.3877H42.9991L42.6543 65.7242H41.9646C41.7243 64.6688 41.2541 63.8433 40.5644 63.2372C39.8748 62.6312 39.0388 62.3281 38.0566 62.3281C37.1684 62.3281 36.4056 62.558 35.7682 63.0282C35.1308 63.488 34.6501 64.1568 34.3157 65.0136C33.9813 65.8705 33.8141 66.905 33.8141 68.1066C33.8141 69.8726 34.1799 71.231 34.9113 72.1924C35.6428 73.1537 36.7086 73.6344 38.1193 73.6344C39.2478 73.6344 40.1987 73.3209 40.951 72.7044C41.7034 72.0878 42.2468 71.1683 42.5603 69.9562H43.3126V74.6062H42.508L42.2677 73.2477C41.0137 74.2613 39.4881 74.7733 37.6908 74.7733C36.3115 74.7733 35.0994 74.5017 34.0754 73.9687C33.0513 73.4358 32.2467 72.673 31.6825 71.7012C31.1182 70.719 30.8361 69.5696 30.8361 68.232C30.8361 67.1871 31.0032 66.2467 31.3481 65.3898C31.6929 64.533 32.1736 63.8015 32.8005 63.1745C33.4275 62.5476 34.1694 62.0669 35.0367 61.7325C35.904 61.3981 36.8654 61.231 37.8998 61.231C38.6 61.231 39.2478 61.325 39.8643 61.5235C40.4808 61.7221 41.1287 62.0356 41.8288 62.464L41.8392 62.4535Z" fill="#FDA311"/><path d="M45.6638 74.5957V73.906C46.2176 73.8538 46.6251 73.7284 46.9177 73.5403C47.1998 73.3522 47.4401 73.0074 47.6387 72.5162L52.1528 61.21H53.4172L57.5133 71.231C57.7537 71.8161 57.9627 72.2759 58.1298 72.6103C58.297 72.9447 58.4747 73.2059 58.6628 73.3731C58.8404 73.5403 59.0598 73.6657 59.3106 73.7284C59.551 73.8015 59.8749 73.8538 60.2615 73.8851V74.5852H53.7829V73.8851C54.3367 73.8642 54.7234 73.8015 54.9637 73.7179C55.204 73.6239 55.319 73.4462 55.319 73.1641C55.319 73.0074 55.2772 72.7984 55.1936 72.5372C55.11 72.2759 55.0055 71.9729 54.8696 71.6176L54.4726 70.5936H49.624C49.3524 71.2101 49.1434 71.7221 49.018 72.1401C48.8822 72.5476 48.8195 72.882 48.8195 73.1223C48.8195 73.4671 48.9448 73.6866 49.2061 73.7702C49.4673 73.8642 49.854 73.906 50.366 73.906V74.5957H45.6638ZM50.0211 69.5695H54.1068L52.1319 64.3762H52.0588L50.0211 69.5695Z" fill="#FDA311"/><path d="M73.9084 64.7001C73.9084 65.651 73.6367 66.4452 73.0829 67.0826C72.5291 67.72 71.6618 68.1484 70.4601 68.3679L74.4413 72.9342C74.713 73.2582 75.0369 73.4985 75.4236 73.6657C75.7997 73.8329 76.1864 73.9165 76.573 73.9165V74.6061H72.5082L68.2553 69.3919C68.0672 69.162 67.9 68.9844 67.7433 68.859C67.5865 68.7336 67.4402 68.6395 67.3044 68.5977C67.1686 68.5455 67.0432 68.5246 66.9178 68.5246V71.8893C66.9178 72.4536 66.97 72.882 67.085 73.1746C67.1999 73.4672 67.4298 73.6761 67.7851 73.7702C68.1403 73.8747 68.6733 73.9269 69.3943 73.9269V74.6166H62.5813V73.9269C63.0829 73.9269 63.4695 73.8747 63.7203 73.7702C63.9711 73.6657 64.1487 73.4776 64.2427 73.1955C64.3368 72.9133 64.3786 72.5058 64.3786 71.9729V64.0523C64.3786 63.5193 64.3368 63.1118 64.2636 62.8401C64.1905 62.5685 64.0338 62.3804 63.8143 62.2863C63.5844 62.1818 63.2396 62.1191 62.7694 62.0982V61.4086H68.7046C70.3556 61.4086 71.6305 61.7012 72.5395 62.2863C73.4486 62.8715 73.9084 63.6761 73.9084 64.721V64.7001ZM66.9073 62.6416V67.4797H68.0254C69.1017 67.4797 69.9063 67.2707 70.4392 66.8423C70.9721 66.4138 71.2334 65.7346 71.2334 64.7837C71.2334 64.0523 71.0139 63.4671 70.5646 63.0178C70.1153 62.5685 69.4988 62.349 68.7151 62.349H67.2208C67.0118 62.349 66.9073 62.4431 66.9073 62.6416Z" fill="#FDA311"/><path d="M78.8927 74.5957V73.9061C79.4047 73.8852 79.7914 73.812 80.0526 73.6971C80.3139 73.5821 80.481 73.3522 80.5646 73.0074C80.6482 72.6626 80.69 72.1401 80.69 71.4296V64.533C80.69 63.8851 80.6482 63.3835 80.5751 63.0387C80.5019 62.6939 80.3452 62.4535 80.1153 62.3073C79.8854 62.161 79.5301 62.0774 79.0599 62.0565V61.3668H84.8384V62.0565C84.3682 62.0774 84.0129 62.161 83.783 62.3073C83.5531 62.4535 83.3964 62.6939 83.3232 63.0387C83.2501 63.3835 83.2083 63.8747 83.2083 64.533V71.4296C83.2083 72.1401 83.2501 72.6626 83.3337 73.0074C83.4173 73.3522 83.5949 73.5821 83.8457 73.6971C84.0965 73.812 84.4936 73.8852 85.0056 73.9061V74.5957H78.8823H78.8927Z" fill="#FDA311"/><path d="M98.3181 74.7734L90.7214 63.9478H90.6483V71.3251C90.6483 72.0774 90.6901 72.6417 90.7737 72.997C90.8573 73.3522 91.0349 73.5926 91.2857 73.7075C91.5469 73.8225 91.9231 73.8956 92.4247 73.9165V74.6062H87.3254V73.9165C87.8896 73.8956 88.3076 73.8225 88.5897 73.7075C88.8719 73.5926 89.06 73.3627 89.154 73.0179C89.2481 72.673 89.3003 72.1506 89.3003 71.44V64.5434C89.3003 63.8956 89.2585 63.394 89.1749 63.0492C89.0913 62.7043 88.9137 62.464 88.6629 62.3177C88.4017 62.1714 88.015 62.0878 87.503 62.0669V61.3773H92.2888L99.1958 71.2937H99.269V64.6584C99.269 63.906 99.2272 63.3417 99.1436 62.9865C99.06 62.6312 98.8928 62.3909 98.642 62.2655C98.3912 62.1401 98.0046 62.0774 97.4926 62.0669V61.3773H102.581V62.0669C102.017 62.0774 101.599 62.1401 101.317 62.2655C101.035 62.3804 100.847 62.6207 100.753 62.9551C100.659 63.2895 100.607 63.8224 100.607 64.533V74.7525H98.3077L98.3181 74.7734Z" fill="#FDA311"/><path d="M111.056 61.2205C112.08 61.2205 113.041 61.3982 113.93 61.743C114.818 62.0878 115.591 62.5789 116.26 63.2059C116.929 63.8329 117.451 64.5539 117.817 65.3898C118.193 66.2258 118.371 67.1244 118.371 68.0962C118.371 69.068 118.182 69.8935 117.806 70.7086C117.43 71.5236 116.908 72.2342 116.239 72.8402C115.57 73.4463 114.797 73.9165 113.909 74.2613C113.02 74.6062 112.07 74.7734 111.056 74.7734C110.042 74.7734 109.081 74.6062 108.203 74.2613C107.315 73.9165 106.542 73.4463 105.873 72.8402C105.204 72.2342 104.682 71.5236 104.306 70.7086C103.929 69.8935 103.741 69.0262 103.741 68.0962C103.741 67.1662 103.929 66.2258 104.295 65.3898C104.671 64.5539 105.183 63.8224 105.852 63.2059C106.521 62.5894 107.294 62.0983 108.182 61.743C109.071 61.3982 110.021 61.2205 111.056 61.2205ZM111.056 73.6553C111.944 73.6553 112.717 73.4358 113.365 72.9865C114.013 72.5372 114.515 71.8998 114.87 71.0743C115.225 70.2488 115.403 69.2665 115.403 68.1485C115.403 66.9572 115.225 65.9332 114.88 65.0659C114.536 64.1986 114.034 63.5298 113.376 63.0492C112.728 62.5789 111.955 62.3386 111.056 62.3386C110.157 62.3386 109.395 62.5789 108.747 63.0492C108.099 63.5194 107.597 64.1986 107.242 65.0659C106.887 65.9332 106.709 66.9677 106.709 68.1485C106.709 69.2665 106.887 70.2488 107.242 71.0743C107.597 71.8998 108.099 72.5372 108.747 72.9865C109.395 73.4358 110.157 73.6553 111.056 73.6553Z" fill="#FDA311"/></g></svg>