<svg width="45" height="45" viewBox="0 0 45 45" fill="none" xmlns="http://www.w3.org/2000/svg">
<path d="M31.03 27.96L30.59 27.09L22.1 10.16L18.88 16.59L18.8 16.76L17.26 19.83L16.96 20.43L10.13 34.05H11.41L13.09 30.7L14.26 28.37H21.55H24.62L26.83 32.78L27.47 34.05H34.08L31.03 27.96ZM29.31 27.09H25.26L20.08 16.75L22.11 12.71L29.32 27.09H29.31ZM14.89 27.09L17.26 22.37L19.63 27.09H14.9H14.89ZM20.9 27.09L17.9 21.1L19.44 18.03L23.98 27.09H20.91H20.9ZM28.11 32.77L25.9 28.36H29.95L32.16 32.77H28.11Z" fill="#FDA311"/>
</svg>
