<svg width="45" height="45" viewBox="0 0 45 45" fill="none" xmlns="http://www.w3.org/2000/svg">
<path d="M44.21 0H0V44.21H44.21V0Z" fill="white"/>
<path d="M31.03 27.97L30.59 27.1L22.1 10.17L18.88 16.6L18.8 16.77L17.26 19.84L16.96 20.44L10.13 34.06H11.41L13.09 30.71L14.26 28.38H21.55H24.62L26.83 32.79L27.47 34.06H34.08L31.03 27.97ZM29.31 27.09H25.26L20.08 16.75L22.11 12.71L29.32 27.09H29.31ZM14.9 27.09L17.27 22.37L19.64 27.09H14.91H14.9ZM20.91 27.09L17.91 21.1L19.45 18.03L23.99 27.09H20.92H20.91ZM28.11 32.78L25.9 28.37H29.95L32.16 32.78H28.11Z" fill="#FDA311"/>
</svg>
